<?xml version="1.0" standalone="no"?>
<!DOCTYPE svg PUBLIC "-//W3C//DTD SVG 20010904//EN"
 "http://www.w3.org/TR/2001/REC-SVG-20010904/DTD/svg10.dtd">
<svg version="1.0" xmlns="http://www.w3.org/2000/svg"
 width="700.000000pt" height="700.000000pt" viewBox="0 0 700.000000 700.000000"
 preserveAspectRatio="xMidYMid meet">
<metadata>
Created by potrace 1.11, written by Peter Selinger 2001-2013
</metadata>
<g transform="translate(0.000000,700.000000) scale(0.100000,-0.100000)"
fill="#000000" stroke="none">
<path d="M253 6115 c-96 -22 -178 -88 -223 -180 l-25 -50 0 -2380 0 -2380 27
-57 c60 -130 173 -194 338 -193 l65 0 1 156 c2 161 6 181 48 227 47 52 55 54
391 54 336 0 343 -1 392 -54 38 -41 45 -76 45 -230 0 -82 3 -149 7 -149 18 -4
4348 -4 4359 -1 10 3 13 33 12 121 -2 190 -2 194 26 238 48 73 56 74 410 74
343 0 347 -1 397 -61 34 -39 41 -79 39 -220 -1 -168 -8 -157 90 -154 171 5
289 88 332 233 15 50 16 269 16 2395 0 1588 -4 2354 -11 2381 -15 59 -77 144
-132 182 -62 42 -112 55 -212 57 l-80 1 -2 -157 c-2 -167 -8 -192 -55 -235
-43 -40 -68 -43 -392 -43 -309 0 -313 0 -347 23 -65 44 -79 77 -80 196 0 58
-1 131 -2 161 l-2 55 -2175 1 c-1196 0 -2180 -1 -2186 -3 -7 -3 -11 -54 -12
-153 -1 -183 -14 -221 -89 -262 -28 -16 -65 -18 -350 -18 l-319 0 -42 27 c-63
41 -74 81 -76 260 l-1 148 -67 0 c-37 0 -89 -4 -115 -10z m4659 -655 c51 -15
92 -51 107 -97 9 -29 11 -204 9 -735 -3 -686 -3 -697 -24 -724 -11 -15 -33
-37 -48 -48 -27 -21 -29 -21 -1456 -21 -1427 0 -1429 0 -1456 21 -15 11 -37
33 -48 48 -21 27 -21 36 -21 744 l0 717 24 34 c13 18 42 42 65 52 39 18 97 19
1426 19 923 0 1397 -4 1422 -10z m-3668 -244 c66 -50 68 -63 68 -407 0 -323 0
-330 -49 -385 -40 -47 -68 -50 -393 -49 -314 2 -335 4 -377 44 -53 50 -55 64
-55 360 0 387 -3 353 35 403 19 25 47 48 67 55 25 9 124 12 351 10 l316 -2 37
-29z m5207 23 c46 -16 86 -55 100 -98 8 -24 12 -133 12 -337 l0 -302 -26 -45
c-47 -80 -55 -81 -417 -81 -306 0 -317 0 -351 21 -19 12 -45 40 -58 62 -22 40
-22 47 -22 350 0 331 2 353 52 397 13 12 38 26 54 32 43 15 612 15 656 1z
m-5214 -1331 c73 -48 76 -60 75 -407 0 -175 -5 -317 -10 -331 -15 -39 -54 -78
-92 -93 -51 -21 -619 -21 -670 0 -45 18 -88 69 -97 113 -8 47 -8 589 1 625 12
45 46 86 89 105 36 16 71 18 352 17 l311 -2 41 -27z m5230 11 c51 -23 81 -63
91 -121 9 -55 8 -574 -2 -613 -12 -46 -46 -86 -90 -105 -36 -16 -77 -18 -341
-18 -326 1 -349 4 -393 56 -13 15 -28 38 -33 51 -6 14 -10 154 -10 330 0 255
2 312 15 343 16 36 54 70 97 86 13 5 158 9 324 10 274 0 304 -1 342 -19z
m-1562 -753 c45 -9 103 -61 115 -104 8 -25 10 -256 8 -732 l-3 -695 -24 -34
c-13 -18 -42 -42 -65 -52 -39 -18 -97 -19 -1433 -19 -1550 0 -1444 -5 -1500
68 l-28 37 0 717 c0 708 0 717 21 744 38 52 69 67 146 73 94 8 2723 4 2763 -3z
m-3682 -560 c24 -12 47 -35 64 -63 l25 -44 1 -303 c0 -326 -4 -355 -51 -398
-52 -47 -67 -49 -404 -46 l-315 3 -37 29 c-66 50 -69 64 -69 406 0 456 -21
436 446 435 272 -1 306 -3 340 -19z m5250 0 c24 -12 47 -35 64 -63 l26 -45 0
-307 c0 -344 -3 -357 -69 -407 l-37 -29 -327 -2 -327 -3 -42 31 c-71 51 -72
61 -73 408 0 188 4 316 11 331 16 40 43 68 84 88 34 16 66 18 345 17 275 -1
311 -3 345 -19z"/>
</g>
</svg>
